<?xml version="1.0" standalone="no"?><!DOCTYPE svg PUBLIC "-//W3C//DTD SVG 1.1//EN" "http://www.w3.org/Graphics/SVG/1.1/DTD/svg11.dtd"><svg t="1761908834540" class="icon" viewBox="0 0 1024 1024" version="1.1" xmlns="http://www.w3.org/2000/svg" p-id="3370" xmlns:xlink="http://www.w3.org/1999/xlink" width="200" height="200"><path d="M574.08 303.36c-14.72 0-26.24-11.52-26.24-26.24s11.52-26.24 26.24-26.24 26.24 11.52 26.24 26.24c0 14.08-11.52 26.24-26.24 26.24z m0-39.04c-7.04 0-12.8 5.76-12.8 12.8s5.76 12.8 12.8 12.8 12.8-5.76 12.8-12.8-5.76-12.8-12.8-12.8zM634.88 410.88c-14.72 0-26.24-11.52-26.24-26.24s11.52-26.24 26.24-26.24 26.24 11.52 26.24 26.24-11.52 26.24-26.24 26.24z m0-38.4c-7.04 0-12.8 5.76-12.8 12.8s5.76 12.8 12.8 12.8 12.8-5.76 12.8-12.8c0-7.68-5.76-12.8-12.8-12.8zM699.52 303.36c-14.72 0-26.24-11.52-26.24-26.24s11.52-26.24 26.24-26.24 26.24 11.52 26.24 26.24c0 14.08-12.16 26.24-26.24 26.24z m0-39.04c-7.04 0-12.8 5.76-12.8 12.8s5.76 12.8 12.8 12.8 12.8-5.76 12.8-12.8-5.76-12.8-12.8-12.8zM769.92 372.48c-14.72 0-26.24-11.52-26.24-26.24s11.52-26.24 26.24-26.24 26.24 11.52 26.24 26.24c0 14.08-12.16 26.24-26.24 26.24z m0-39.04c-7.04 0-12.8 5.76-12.8 12.8s5.76 12.8 12.8 12.8 12.8-5.76 12.8-12.8c-0.64-7.04-5.76-12.8-12.8-12.8zM789.12 488.32c-14.72 0-26.24-11.52-26.24-26.24s11.52-26.24 26.24-26.24 26.24 11.52 26.24 26.24-11.52 26.24-26.24 26.24z m0-38.4c-7.04 0-12.8 5.76-12.8 12.8s5.76 12.8 12.8 12.8 12.8-5.76 12.8-12.8-5.76-12.8-12.8-12.8zM856.96 372.48c-14.72 0-26.24-11.52-26.24-26.24s11.52-26.24 26.24-26.24 26.24 11.52 26.24 26.24c0 14.08-11.52 26.24-26.24 26.24z m0-39.04c-7.04 0-12.8 5.76-12.8 12.8s5.76 12.8 12.8 12.8 12.8-5.76 12.8-12.8-5.76-12.8-12.8-12.8z" fill="#00ABE0" p-id="3371"></path><path d="M462.08 828.16h-396.8c-2.56 0-4.48-1.28-5.76-3.2-1.28-1.92-1.28-4.48-0.64-6.4 10.24-23.04 12.16-46.08 5.12-69.12-0.64-1.92 0-4.48 1.28-5.76 1.28-1.92 3.2-2.56 5.76-2.56h391.68c24.32 0 43.52 19.84 43.52 43.52 0 24.32-19.84 43.52-44.16 43.52z m-386.56-13.44h386.56c16.64 0 30.08-13.44 30.08-30.08s-13.44-30.08-30.08-30.08H79.36c4.48 19.84 3.2 40.32-3.84 60.16z" fill="#211D1C" p-id="3372"></path><path d="M462.08 865.28h-428.8c-3.84 0-7.04-3.2-7.04-7.04v-37.12c0-3.84 3.2-7.04 7.04-7.04H70.4c3.84 0 7.04 3.2 7.04 7.04 0 3.84-3.2 7.04-7.04 7.04H40.32v23.68h421.76c10.24 0 17.28-1.92 21.76-7.04 8.96-8.96 8.96-28.16 8.96-50.56v-9.6c0-3.84 3.2-7.04 7.04-7.04 3.84 0 7.04 3.2 7.04 7.04v9.6c0 25.6 0.64 47.36-12.8 60.8-7.68 7.04-17.92 10.24-32 10.24z" fill="#211D1C" p-id="3373"></path><path d="M965.12 865.28h-428.8c-14.08 0-24.32-3.2-31.36-10.88-12.8-12.8-12.8-35.2-12.8-60.8v-9.6c0-3.84 3.2-7.04 7.04-7.04 3.84 0 7.04 3.2 7.04 7.04v9.6c0 22.4 0 41.6 8.96 50.56 4.48 4.48 11.52 7.04 21.76 7.04h421.76v-23.68H928c-3.84 0-7.04-3.2-7.04-7.04 0-3.84 3.2-7.04 7.04-7.04h37.12c3.84 0 7.04 3.2 7.04 7.04v37.12c-0.64 4.48-3.84 7.68-7.04 7.68z" fill="#211D1C" p-id="3374"></path><path d="M498.56 791.68c-3.84 0-7.04-3.2-7.04-7.04V219.52c0-16.64-13.44-30.08-30.08-30.08h-384v558.08c0 3.84-3.2 7.04-7.04 7.04-3.84 0-7.04-3.2-7.04-7.04V182.4c0-3.84 3.2-7.04 7.04-7.04h391.04c24.32 0 43.52 19.84 43.52 43.52v565.12c0 4.48-2.56 7.68-6.4 7.68z" fill="#211D1C" p-id="3375"></path><path d="M498.56 791.68c-3.84 0-7.04-3.2-7.04-7.04V219.52c0-24.32 19.84-43.52 43.52-43.52H928c3.84 0 7.04 3.2 7.04 7.04v565.12c0 3.84-3.2 7.04-7.04 7.04-3.84 0-7.04-3.2-7.04-7.04V189.44H535.68c-16.64 0-30.08 13.44-30.08 30.08v565.12c-0.64 3.84-3.2 7.04-7.04 7.04z" fill="#211D1C" p-id="3376"></path><path d="M938.24 828.16H536.32c-24.32 0-43.52-19.84-43.52-43.52 0-24.32 19.84-43.52 43.52-43.52H928c1.92 0 3.84 0.64 5.12 2.56 1.28 1.28 1.92 3.84 1.28 5.76-4.48 23.04-0.64 46.72 10.24 69.76 1.28 1.92 0.64 4.48-0.64 6.4-1.28 1.92-3.2 2.56-5.76 2.56z m-401.92-73.6c-16.64 0-30.08 13.44-30.08 30.08s13.44 30.08 30.08 30.08H928c-7.68-19.84-10.24-40.32-8.32-60.8H536.32zM33.92 828.16c-3.84 0-7.04-3.2-7.04-7.04V256.64c0-3.84 3.2-7.04 7.04-7.04h37.12c3.84 0 7.04 3.2 7.04 7.04 0 3.84-3.2 7.04-7.04 7.04H40.32v558.08c0 3.84-2.56 6.4-6.4 6.4zM965.12 828.16c-3.84 0-7.04-3.2-7.04-7.04V263.68H928c-3.84 0-7.04-3.2-7.04-7.04 0-3.84 3.2-7.04 7.04-7.04h37.12c3.84 0 7.04 3.2 7.04 7.04v565.12c-0.64 3.84-3.84 6.4-7.04 6.4z" fill="#211D1C" p-id="3377"></path><path d="M837.76 352.64h-48.64c-3.84 0-7.04-3.2-7.04-7.04 0-3.84 3.2-7.04 7.04-7.04h48.64c3.84 0 7.04 3.2 7.04 7.04-0.64 4.48-3.84 7.04-7.04 7.04zM755.84 339.2c-1.92 0-3.2-0.64-4.48-1.92l-42.88-42.24c-2.56-2.56-2.56-7.04 0-9.6 2.56-2.56 7.04-2.56 9.6 0l42.88 42.24c2.56 2.56 2.56 7.04 0 9.6-1.28 1.28-3.2 1.92-5.12 1.92zM785.92 449.92c-3.2 0-6.4-2.56-6.4-5.76l-12.8-78.08c-0.64-3.84 1.92-7.04 5.76-7.68 3.84-0.64 7.04 1.92 7.68 5.76l12.8 78.08c0.64 3.84-1.92 7.04-5.76 7.68h-1.28zM653.44 386.56c-3.2 0-5.76-1.92-6.4-5.12-1.28-3.84 1.28-7.04 4.48-8.32l97.28-28.16c3.84-1.28 7.04 1.28 8.32 4.48 1.28 3.84-1.28 7.04-4.48 8.32l-97.28 28.16c-0.64 0-1.28 0.64-1.92 0.64zM680.32 283.52H593.92c-3.84 0-7.04-3.2-7.04-7.04 0-3.84 3.2-7.04 7.04-7.04h86.4c3.84 0 7.04 3.2 7.04 7.04-0.64 4.48-3.84 7.04-7.04 7.04z" fill="#00ABE0" p-id="3378"></path><path d="M732.16 535.68h-45.44c-3.84 0-7.04-3.2-7.04-7.04s3.2-7.04 7.04-7.04h45.44c3.84 0 7.04 3.2 7.04 7.04s-3.2 7.04-7.04 7.04zM809.6 574.08H609.92c-3.84 0-7.04-3.2-7.04-7.04s3.2-7.04 7.04-7.04h199.68c3.84 0 7.04 3.2 7.04 7.04s-3.2 7.04-7.04 7.04zM874.88 612.48H544.64c-3.84 0-7.04-3.2-7.04-7.04 0-3.84 3.2-7.04 7.04-7.04h330.88c3.84 0 7.04 3.2 7.04 7.04-0.64 3.84-3.84 7.04-7.68 7.04zM874.88 650.88H544.64c-3.84 0-7.04-3.2-7.04-7.04 0-3.84 3.2-7.04 7.04-7.04h330.88c3.84 0 7.04 3.2 7.04 7.04-0.64 3.84-3.84 7.04-7.68 7.04zM874.88 689.28H544.64c-3.84 0-7.04-3.2-7.04-7.04 0-3.84 3.2-7.04 7.04-7.04h330.88c3.84 0 7.04 3.2 7.04 7.04-0.64 3.84-3.84 7.04-7.68 7.04zM309.76 410.24h-45.44c-3.84 0-7.04-3.2-7.04-7.04s3.2-7.04 7.04-7.04h45.44c3.84 0 7.04 3.2 7.04 7.04s-3.2 7.04-7.04 7.04zM453.12 448.64H122.24c-3.84 0-7.04-3.2-7.04-7.04 0-3.84 3.2-7.04 7.04-7.04h330.88c3.84 0 7.04 3.2 7.04 7.04 0 3.84-3.2 7.04-7.04 7.04zM453.12 487.04H122.24c-3.84 0-7.04-3.2-7.04-7.04 0-3.84 3.2-7.04 7.04-7.04h330.88c3.84 0 7.04 3.2 7.04 7.04 0 3.84-3.2 7.04-7.04 7.04zM453.12 525.44H122.24c-3.84 0-7.04-3.2-7.04-7.04s3.2-7.04 7.04-7.04h330.88c3.84 0 7.04 3.2 7.04 7.04s-3.2 7.04-7.04 7.04z" fill="#211D1C" p-id="3379"></path><path d="M442.88 641.92H132.48c-3.84 0-7.04-3.2-7.04-7.04s3.2-7.04 7.04-7.04h310.4c3.84 0 7.04 3.2 7.04 7.04s-3.2 7.04-7.04 7.04z" fill="#00ABE0" p-id="3380"></path><path d="M133.76 590.72h-0.64-0.64c-3.84 0-7.04-3.2-7.04-7.04 0-3.84 3.2-7.04 7.04-7.04h1.92c3.84 0.64 6.4 3.84 6.4 7.68-0.64 3.84-3.2 6.4-7.04 6.4z" fill="#211D1C" p-id="3381"></path><path d="M320.64 693.12c-3.2 0-6.4-2.56-6.4-5.76-0.64-3.84 1.92-7.04 5.76-7.68 0.64 0 0.64 0 1.28-0.64 3.2-1.28 7.68 0.64 8.96 3.84 1.28 3.2-0.64 7.68-3.84 8.96-1.28 0.64-2.56 0.64-3.84 1.28h-1.92z m-120.32-1.28c-2.56 0-5.12-1.28-5.76-3.84-1.92-3.2 0-7.68 3.2-8.96 0.64 0 0.64-0.64 1.28-0.64 3.2-1.92 7.04-1.28 9.6 1.92 1.92 3.2 1.28 7.04-1.92 9.6-1.28 0.64-1.92 1.28-3.2 1.92h-3.2z m-15.36-1.92c-1.28 0-3.2-0.64-4.48-1.28-0.64-0.64-1.92-1.28-2.56-2.56-2.56-2.56-2.56-7.04 0-9.6 2.56-2.56 7.04-2.56 9.6 0l1.28 1.28c3.2 2.56 3.2 6.4 1.28 9.6-0.64 1.92-2.56 2.56-5.12 2.56z m121.6-3.2c-1.92 0-3.84-0.64-5.12-2.56-0.64-0.64-1.28-1.92-1.92-2.56-1.92-3.2-1.28-7.04 1.28-9.6 3.2-1.92 7.04-1.28 9.6 1.28 0.64 0.64 0.64 1.28 1.28 1.92 2.56 2.56 1.92 7.04-0.64 9.6-1.28 1.92-3.2 1.92-4.48 1.92z m121.6-3.2c-1.92 0-4.48-1.28-5.76-3.2-0.64-0.64-1.28-1.92-1.92-2.56-1.92-3.2-0.64-7.04 2.56-8.96 3.2-1.92 7.04-0.64 8.96 2.56 0.64 0.64 0.64 1.28 1.28 1.92 1.92 3.2 1.28 7.04-1.92 9.6-0.64 0.64-1.92 0.64-3.2 0.64z m-93.44-1.92c-1.28 0-2.56 0-3.2-0.64-3.2-1.92-4.48-5.76-2.56-8.96 0.64-0.64 0.64-1.28 1.28-1.92 1.92-3.2 5.76-4.48 8.96-2.56 3.2 1.92 4.48 5.76 2.56 8.96-0.64 0.64-1.28 1.92-1.28 2.56-1.28 1.28-3.2 2.56-5.76 2.56z m-122.24-3.84c-1.28 0-1.92 0-3.2-0.64-3.2-1.92-4.48-5.76-3.2-8.96 0.64-0.64 0.64-1.28 1.28-1.92 1.28-3.2 5.76-5.12 8.96-3.2 3.2 1.28 5.12 5.76 3.2 8.96-0.64 0.64-0.64 1.92-1.28 2.56-0.64 1.92-3.2 3.2-5.76 3.2z m-37.76-3.84c-2.56 0-5.12-1.28-6.4-3.84-0.64-0.64-0.64-1.92-1.28-2.56-1.28-3.2 0-7.68 3.84-8.96 3.2-1.28 7.68 0 8.96 3.84 0.64 0.64 0.64 1.28 1.28 2.56 1.28 3.2 0 7.68-3.2 8.96h-3.2z m245.12-7.68c-2.56 0-5.12-1.92-6.4-4.48l-1.28-2.56c-1.28-3.2 0.64-7.68 3.84-8.96 3.2-1.28 7.68 0.64 8.32 3.84l0.64 2.56c1.28 3.2-0.64 7.68-3.84 8.96 0 0.64-0.64 0.64-1.28 0.64z m-129.28 0l-1.28-2.56c-1.28-3.2 0.64-7.68 3.84-8.96 3.2-1.28 7.68 0.64 8.96 3.84l0.64 1.92-12.16 5.76z m52.48-2.56c-0.64 0-1.28 0-2.56-0.64-3.2-1.28-5.12-5.12-3.84-8.96l0.64-2.56c1.28-3.84 5.12-5.12 8.32-4.48 3.84 1.28 5.12 5.12 4.48 8.32l-0.64 2.56c-1.28 4.48-3.84 5.76-6.4 5.76z m-122.88-3.84c-0.64 0-1.28 0-1.92-0.64-3.84-1.28-5.12-5.12-4.48-8.32l0.64-1.92 6.4 1.92 6.4 1.92-0.64 2.56c-1.28 2.56-3.84 4.48-6.4 4.48z m-52.48-3.84c-2.56 0-5.76-1.92-6.4-4.48l-0.64-2.56c-1.28-3.84 0.64-7.04 4.48-8.32 3.84-1.28 7.04 0.64 8.32 4.48l0.64 2.56c1.28 3.84-0.64 7.68-4.48 8.32h-1.92z m122.88-3.84c-2.56 0-5.76-1.92-6.4-4.48l-0.64-2.56c-1.28-3.84 0.64-7.04 4.48-8.32 3.84-1.28 7.04 0.64 8.32 4.48l0.64 2.56c1.28 3.84-0.64 7.04-4.48 8.32h-1.92z m122.88-3.84c-3.2 0-5.76-1.92-6.4-5.12l-0.64-2.56c-1.28-3.84 0.64-7.04 4.48-8.32 3.84-1.28 7.04 0.64 8.32 4.48l0.64 2.56c1.28 3.84-0.64 7.04-4.48 8.32-0.64 0.64-1.28 0.64-1.92 0.64z m-64.64-2.56h-1.92c-3.84-1.28-5.76-5.12-4.48-8.32l0.64-2.56c1.28-3.84 5.12-5.76 8.32-4.48 3.84 1.28 5.76 5.12 4.48 8.32l-0.64 2.56c-1.28 2.56-3.84 4.48-6.4 4.48z m-122.88-4.48H224c-3.84-1.28-5.76-5.12-4.48-8.32l0.64-2.56c1.28-3.84 5.12-5.76 8.32-4.48 3.84 1.28 5.76 5.12 4.48 8.32l-0.64 2.56c-1.28 2.56-3.84 4.48-6.4 4.48z m-64-3.2c-3.2 0-5.76-1.92-6.4-4.48l-0.64-2.56c-1.28-3.84 0.64-7.04 4.48-8.32 3.84-1.28 7.04 0.64 8.32 4.48l0.64 2.56c1.28 3.84-0.64 7.04-4.48 8.32 0-0.64-0.64 0-1.92 0z m123.52-4.48c-3.2 0-5.76-1.92-6.4-4.48l-0.64-2.56c-1.28-3.84 0.64-7.04 4.48-8.32 3.84-1.28 7.04 0.64 8.32 4.48l0.64 2.56c1.28 3.84-0.64 7.04-4.48 8.32h-1.92z m122.88-3.84c-2.56 0-5.76-1.92-6.4-4.48l-0.64-2.56c-1.28-3.84 0.64-7.68 4.48-8.32 3.84-1.28 7.68 0.64 8.32 4.48l0.64 2.56c1.28 3.84-0.64 7.04-4.48 8.32h-1.92z m-53.76-2.56c-0.64 0-1.28 0-1.92-0.64-3.84-1.28-5.76-5.12-4.48-8.32l0.64-2.56c1.28-3.84 5.12-5.76 8.32-4.48 3.84 1.28 5.76 5.12 4.48 8.32l-0.64 2.56c-1.28 3.2-3.84 5.12-6.4 5.12z m-122.88-3.84c-0.64 0-1.28 0-1.92-0.64-3.84-1.28-5.12-5.12-4.48-8.32l0.64-2.56c1.28-3.2 5.12-5.12 8.96-3.84 3.2 1.28 5.12 5.12 3.84 8.96l-0.64 2.56c-1.28 1.92-3.84 3.84-6.4 3.84z m-75.52-3.84c-2.56 0-5.12-1.92-6.4-4.48l-0.64-2.56c-1.28-3.2 0.64-7.68 3.84-8.96 3.2-1.28 7.68 0.64 8.96 3.84l0.64 2.56c1.28 3.2-0.64 7.68-3.84 8.96-0.64 0.64-1.92 0.64-2.56 0.64z m122.88-3.84c-2.56 0-5.12-1.92-6.4-4.48l-0.64-2.56c-1.28-3.2 0-7.68 3.84-8.96 3.2-1.28 7.68 0 8.96 3.84l1.28 2.56c1.28 3.2-0.64 7.68-3.84 8.96-1.92 0.64-2.56 0.64-3.2 0.64z m122.24-3.84c-2.56 0-5.12-1.28-6.4-3.84-0.64-0.64-0.64-1.28-1.28-2.56-1.28-3.2 0-7.68 3.2-8.96 3.2-1.28 7.68 0 8.96 3.2 0.64 0.64 0.64 1.92 1.28 2.56 1.28 3.2 0 7.68-3.84 8.96 0 0.64-0.64 0.64-1.92 0.64z m-40.32-2.56c-0.64 0-1.92 0-2.56-0.64-3.2-1.28-5.12-5.76-3.2-8.96 0.64-0.64 0.64-1.92 1.28-2.56 1.92-3.2 5.76-4.48 8.96-3.2 3.2 1.92 4.48 5.76 3.2 8.96-0.64 0.64-0.64 1.28-1.28 2.56-1.28 2.56-3.84 3.84-6.4 3.84z m-122.24-3.84c-1.28 0-1.92 0-3.2-0.64-3.2-1.92-4.48-5.76-2.56-8.96 0.64-0.64 0.64-1.92 1.28-2.56 1.92-3.2 5.76-4.48 8.96-2.56 3.2 1.92 4.48 5.76 2.56 8.96-0.64 0.64-0.64 1.28-1.28 1.92-0.64 2.56-3.2 3.84-5.76 3.84z m-90.24-3.2c-2.56 0-4.48-1.28-5.76-3.2-0.64-0.64-0.64-1.28-1.28-1.92-1.92-3.2-1.28-7.04 1.92-9.6 3.2-1.92 7.04-1.28 9.6 1.92 0.64 0.64 1.28 1.92 1.92 2.56 1.92 3.2 0.64 7.04-2.56 9.6-1.28 0-2.56 0.64-3.84 0.64z m121.6-3.84c-1.92 0-3.84-0.64-5.12-2.56-0.64-0.64-0.64-1.28-1.28-1.92-2.56-2.56-2.56-7.04 0.64-9.6 2.56-2.56 7.04-2.56 9.6 0.64 0.64 0.64 1.28 1.92 1.92 2.56 2.56 3.2 1.92 7.04-1.28 9.6-1.28 1.28-3.2 1.28-4.48 1.28z m121.6-2.56c-1.92 0-3.2-0.64-4.48-1.92l-1.28-1.28c-3.2-2.56-3.2-6.4-1.28-9.6 2.56-3.2 6.4-3.2 9.6-1.28 0.64 0.64 1.92 1.28 2.56 2.56 2.56 2.56 2.56 7.04 0 9.6-1.92 0.64-3.2 1.92-5.12 1.92z m-19.84-1.92c-1.92 0-3.84-0.64-5.12-2.56-2.56-3.2-1.92-7.04 1.28-9.6 1.28-0.64 1.92-1.28 3.2-1.92 3.2-1.92 7.68-0.64 8.96 2.56 1.92 3.2 0.64 7.68-2.56 8.96-0.64 0-0.64 0.64-1.28 0.64-1.28 1.28-2.56 1.92-4.48 1.92z m-120.32-2.56c-2.56 0-5.12-1.28-6.4-4.48-1.28-3.2 0-7.68 3.84-8.96 1.28-0.64 2.56-0.64 3.84-1.28 3.84-0.64 7.04 1.92 7.68 5.12 0.64 3.84-1.92 7.04-5.12 7.68-0.64 0-0.64 0-1.28 0.64-0.64 1.28-1.92 1.28-2.56 1.28zM442.88 693.12h-1.92c-3.84-0.64-6.4-3.84-6.4-7.68 0.64-3.84 3.84-6.4 7.68-6.4h0.64c3.84 0 7.04 3.2 7.04 7.04 0 4.48-3.2 7.04-7.04 7.04z" fill="#00ABE0" p-id="3382"></path><path d="M449.28 371.84H122.24c-3.84 0-7.04-3.2-7.04-7.04 0-3.84 3.2-7.04 7.04-7.04h327.04c3.84 0 7.04 3.2 7.04 7.04-0.64 3.84-3.2 7.04-7.04 7.04z" fill="#211D1C" p-id="3383"></path><path d="M149.76 371.84c-3.84 0-7.04-3.2-7.04-7.04v-7.04c0-3.84 3.2-7.04 7.04-7.04 3.84 0 7.04 3.2 7.04 7.04V364.8c-0.64 3.84-3.2 7.04-7.04 7.04zM176.64 371.84c-3.84 0-7.04-3.2-7.04-7.04v-7.04c0-3.84 3.2-7.04 7.04-7.04 3.84 0 7.04 3.2 7.04 7.04V364.8c0 3.84-3.2 7.04-7.04 7.04zM204.16 371.84c-3.84 0-7.04-3.2-7.04-7.04v-56.32c0-3.84 3.2-7.04 7.04-7.04 3.84 0 7.04 3.2 7.04 7.04V364.8c-0.64 3.84-3.2 7.04-7.04 7.04zM231.04 371.84c-3.84 0-7.04-3.2-7.04-7.04V248.32c0-3.84 3.2-7.04 7.04-7.04 3.84 0 7.04 3.2 7.04 7.04v117.12c0 3.2-3.2 6.4-7.04 6.4zM258.56 371.84c-3.84 0-7.04-3.2-7.04-7.04v-34.56c0-3.84 3.2-7.04 7.04-7.04 3.84 0 7.04 3.2 7.04 7.04V364.8c0 3.84-3.2 7.04-7.04 7.04zM285.44 371.84c-3.84 0-7.04-3.2-7.04-7.04v-7.04c0-3.84 3.2-7.04 7.04-7.04 3.84 0 7.04 3.2 7.04 7.04V364.8c0 3.84-3.2 7.04-7.04 7.04zM312.96 371.84c-3.84 0-7.04-3.2-7.04-7.04v-7.04c0-3.84 3.2-7.04 7.04-7.04 3.84 0 7.04 3.2 7.04 7.04V364.8c0 3.84-3.2 7.04-7.04 7.04zM340.48 371.84c-3.84 0-7.04-3.2-7.04-7.04v-7.04c0-3.84 3.2-7.04 7.04-7.04 3.84 0 7.04 3.2 7.04 7.04V364.8c-0.64 3.84-3.84 7.04-7.04 7.04zM367.36 371.84c-3.84 0-7.04-3.2-7.04-7.04v-34.56c0-3.84 3.2-7.04 7.04-7.04 3.84 0 7.04 3.2 7.04 7.04V364.8c0 3.84-3.2 7.04-7.04 7.04zM394.88 371.84c-3.84 0-7.04-3.2-7.04-7.04v-12.8c0-3.84 3.2-7.04 7.04-7.04s7.04 3.2 7.04 7.04v12.8c-0.64 3.84-3.84 7.04-7.04 7.04zM421.76 371.84c-3.84 0-7.04-3.2-7.04-7.04v-12.8c0-3.84 3.2-7.04 7.04-7.04 3.84 0 7.04 3.2 7.04 7.04v12.8c0 3.84-3.2 7.04-7.04 7.04z" fill="#211D1C" p-id="3384"></path><path d="M132.48 703.36c-3.84 0-7.04-3.2-7.04-7.04V574.08c0-3.84 3.2-7.04 7.04-7.04 3.84 0 7.04 3.2 7.04 7.04v122.24c0 3.84-3.2 7.04-7.04 7.04z" fill="#00ABE0" p-id="3385"></path></svg>