<?xml version="1.0" standalone="no"?><!DOCTYPE svg PUBLIC "-//W3C//DTD SVG 1.1//EN" "http://www.w3.org/Graphics/SVG/1.1/DTD/svg11.dtd"><svg t="1761909578999" class="icon" viewBox="0 0 1024 1024" version="1.1" xmlns="http://www.w3.org/2000/svg" p-id="16358" xmlns:xlink="http://www.w3.org/1999/xlink" width="200" height="200"><path d="M769.1 266.1c-24.7 0-44.7 20.1-44.7 44.7 0 7.9 2.1 15.3 5.7 21.7l-98.4 98.4c-0.7 0.7-1.2 1.5-1.7 2.3-6.9-4.3-15-6.8-23.7-6.8-13.4 0-25.4 5.9-33.7 15.3l-127.3-76.8c0.7-3.1 1.1-6.3 1.1-9.7 0-24.7-20.1-44.7-44.7-44.7S357 330.6 357 355.2c0 10.8 3.9 20.8 10.3 28.5l-90.5 106.5c-7-4.5-15.3-7.1-24.2-7.1-24.7 0-44.7 20.1-44.7 44.7s20.1 44.7 44.7 44.7 44.7-20.1 44.7-44.7c0-8.5-2.4-16.5-6.5-23.3l91.9-108.1c0.1-0.2 0.3-0.3 0.4-0.5 5.7 2.6 11.9 4 18.6 4 14.2 0 26.8-6.6 35-17l126.5 76.3c-1 3.8-1.6 7.7-1.6 11.8 0 24.7 20.1 44.7 44.7 44.7S651 495.6 651 471c0-9-2.7-17.4-7.3-24.5 0.7-0.4 1.5-1 2.1-1.6l97.7-97.7c7.3 5.1 16.1 8.1 25.7 8.1 24.7 0 44.7-20.1 44.7-44.7s-20.1-44.5-44.8-44.5zM252.5 552.6c-13.6 0-24.7-11.1-24.7-24.7s11.1-24.7 24.7-24.7 24.7 11.1 24.7 24.7-11.1 24.7-24.7 24.7z m149.1-172.7c-13.6 0-24.7-11.1-24.7-24.7s11.1-24.7 24.7-24.7 24.7 11.1 24.7 24.7-11 24.7-24.7 24.7z m204.6 116c-13.6 0-24.7-11.1-24.7-24.7s11.1-24.7 24.7-24.7 24.7 11.1 24.7 24.7-11 24.7-24.7 24.7z m162.9-160.4c-13.6 0-24.7-11.1-24.7-24.7s11.1-24.7 24.7-24.7 24.7 11.1 24.7 24.7-11 24.7-24.7 24.7z" fill="#756161" p-id="16359"></path><path d="M943.3 669.8h-40.8v-527c0-9.1-7.4-16.5-16.5-16.5H528.5V79.8c0-8.5-7.4-15.4-16.5-15.4s-16.5 6.9-16.5 15.4v46.4H134.8c-9.1 0-16.5 7.4-16.5 16.5v527.1h-38c-9.1 0-16.5 7.4-16.5 16.5V765c0 9.1 7.4 16.5 16.5 16.5H357L236.1 932.8c-5.7 7.1-4.5 17.5 2.6 23.2a16.523 16.523 0 0 0 23.2-2.6l137.3-171.9h224.6l137.3 171.9c3.3 4.1 8.1 6.2 12.9 6.2 3.6 0 7.2-1.2 10.3-3.6 7.1-5.7 8.3-16.1 2.6-23.2L666.1 781.5h277.3c9.1 0 16.5-7.4 16.5-16.5v-78.7c-0.1-9.1-7.5-16.5-16.6-16.5z m-792-510.5h718.2v510.6H151.3V159.3z m775.5 589.2h-830v-45.7h830v45.7z" fill="#756161" p-id="16360"></path></svg>